<svg xmlns="http://www.w3.org/2000/svg" width="16.911" height="17" viewBox="0 0 16.911 17">
  <path id="Fill_943" data-name="Fill 943" d="M15.4,17H1.509a1.537,1.537,0,0,1-1.137-.5,1.433,1.433,0,0,1-.364-1.116A8.5,8.5,0,0,1,5.543,8.241a4.631,4.631,0,1,1,5.825,0A8.507,8.507,0,0,1,16.9,15.379a1.433,1.433,0,0,1-.364,1.116A1.537,1.537,0,0,1,15.4,17ZM8.456,9.272a6.936,6.936,0,0,0-6.9,6.182H15.36A6.936,6.936,0,0,0,8.456,9.272Zm0-7.727a3.091,3.091,0,1,0,3.087,3.091A3.093,3.093,0,0,0,8.456,1.545Z" transform="translate(0)" fill="#033"/>
</svg>
